<svg xmlns="http://www.w3.org/2000/svg" width="42.256" height="65.978" viewBox="0 0 42.256 65.978">
  <g id="Grupo_1344" data-name="Grupo 1344" transform="translate(-2872 -3113.36)">
    <g id="Grupo_1302" data-name="Grupo 1302" transform="translate(2873 3114.384)">
      <path id="Caminho_830" data-name="Caminho 830" d="M-51.536,576.055a20.128,20.128,0,0,1-20.128,20.128,20.128,20.128,0,0,1-20.128-20.128c0-11.116,9.012-28.948,20.128-28.948S-51.536,564.939-51.536,576.055Z" transform="translate(91.792 -532.229)" fill="#f2f2f2" stroke="#0073ad" stroke-miterlimit="10" stroke-width="2"/>
      <path id="Caminho_831" data-name="Caminho 831" d="M-61.717,548.55l2.158-10.412c.442-2.128-1.353-4-3.254-3.386l-7.043,2.263a9.242,9.242,0,0,1-5.615.011l-7.252-2.3c-1.9-.6-3.685,1.266-3.244,3.389L-83.8,548.55" transform="translate(92.891 -534.614)" fill="#f2f2f2" stroke="#0073ad" stroke-miterlimit="10" stroke-width="2"/>
      <path id="Caminho_832" data-name="Caminho 832" d="M-62.832,553.253H-82.659a3.479,3.479,0,0,1-3.468-3.469h0a3.479,3.479,0,0,1,3.468-3.468h19.827a3.478,3.478,0,0,1,3.468,3.468h0A3.479,3.479,0,0,1-62.832,553.253Z" transform="translate(92.874 -532.38)" fill="#f2f2f2" stroke="#0073ad" stroke-miterlimit="10" stroke-width="2"/>
    </g>
    <path id="Caminho_811" data-name="Caminho 811" d="M303.608,343.385c-2.188-.906-2.821-1.448-2.821-2.424,0-.816.576-1.689,2.19-1.689a5.609,5.609,0,0,1,2.929.793l.476.272.963-2.543-.343-.2a7.006,7.006,0,0,0-3.029-.917v-2.459h-2.495v2.617a4.5,4.5,0,0,0-3.788,4.426c0,2.668,2.132,3.874,4.433,4.775,1.805.732,2.541,1.47,2.541,2.551,0,1.188-1.011,1.987-2.515,1.987a6.2,6.2,0,0,1-3.352-1l-.5-.334-.924,2.581.288.205A7.55,7.55,0,0,0,301.3,353.2v2.556h2.52v-2.694a4.786,4.786,0,0,0,3.963-4.65C307.786,346.084,306.535,344.58,303.608,343.385Z" transform="translate(2590.628 2810.5)" fill="#0073ad"/>
  </g>
</svg>
