<svg xmlns="http://www.w3.org/2000/svg" width="11.469" height="22" viewBox="0 0 11.469 22">
  <g id="Grupo_1269" data-name="Grupo 1269" transform="translate(-800.37 -60.441)">
    <g id="Grupo_1268" data-name="Grupo 1268" transform="translate(800.37 60.441)">
      <path id="Caminho_798" data-name="Caminho 798" d="M803.757,82.441q0-1.16,0-2.319,0-3.757,0-7.513c0-.192,0-.192-.188-.192-1.007,0-2.014,0-3.022,0-.132,0-.176-.027-.175-.169.006-1.2,0-2.392,0-3.588,0-.178,0-.179.175-.179,1.016,0,2.032,0,3.049,0,.124,0,.161-.034.16-.159,0-.994-.009-1.988,0-2.981a5.477,5.477,0,0,1,.515-2.311,4.321,4.321,0,0,1,3.184-2.457,5.694,5.694,0,0,1,1.336-.135c.705.019,1.41.034,2.115.06.264.01.526.055.79.07.116.007.14.051.139.156q0,1.625,0,3.251c0,.123-.042.152-.156.151-.616,0-1.232-.007-1.848,0a6.059,6.059,0,0,0-.738.054,1.312,1.312,0,0,0-1.2,1.192,5.673,5.673,0,0,0-.053.725c-.007.746,0,1.493,0,2.239,0,.113.033.144.145.144,1.183,0,2.365,0,3.548,0,.179,0,.185,0,.161.179-.084.64-.175,1.28-.258,1.92-.069.534-.132,1.069-.2,1.6,0,.031-.01.062-.012.093-.005.105-.055.141-.164.139-.54-.005-1.079,0-1.619,0h-1.416c-.185,0-.185,0-.185.18v7c0,.889,0,2.585,0,2.843Z" transform="translate(-800.37 -60.441)" fill="#fff"/>
    </g>
  </g>
</svg>
