<svg xmlns="http://www.w3.org/2000/svg" width="183.495" height="35.044" viewBox="0 0 183.495 35.044">
  <g id="Grupo_1228" data-name="Grupo 1228" transform="translate(-116.177 -361.317)">
    <rect id="Retângulo_185" data-name="Retângulo 185" width="35.032" height="35.032" rx="5" transform="translate(116.177 361.317)" fill="#0073ad"/>
    <path id="Caminho_782" data-name="Caminho 782" d="M134.224,392.92h9.4l1.256,3.46h7.058l-9.773-25.143h-6.141l-9.772,25.143h6.718Zm7.5-5.226h-5.6l2.817-7.669Z" transform="translate(-5.138 -5.059)" fill="#fff" fill-rule="evenodd"/>
    <rect id="Retângulo_186" data-name="Retângulo 186" width="35.032" height="35.032" rx="5" transform="translate(156.098 361.317)" fill="#5c9f38"/>
    <path id="Caminho_783" data-name="Caminho 783" d="M222.948,396.543a25.065,25.065,0,0,0,4.8-.385,8.572,8.572,0,0,0,3.279-1.273,5.146,5.146,0,0,0,1.877-2.324,9.129,9.129,0,0,0,.6-3.551,15.773,15.773,0,0,0-.232-3.009,5.055,5.055,0,0,0-.837-2.047,4.55,4.55,0,0,0-1.657-1.364,12.862,12.862,0,0,0-2.692-.949c-1.091-.266-2.4-.537-3.948-.809-.859-.147-1.549-.277-2.076-.4a4.5,4.5,0,0,1-1.188-.4,1.127,1.127,0,0,1-.542-.6,2.805,2.805,0,0,1-.13-1.007,2.107,2.107,0,0,1,.215-1.086,1.318,1.318,0,0,1,.848-.6,6.834,6.834,0,0,1,1.821-.181q1.519.008,3.02.136t2.838.305c.894.118,1.691.232,2.387.339l1.018-5.53a8.323,8.323,0,0,0-1.164-.249c-.521-.091-1.115-.17-1.793-.249s-1.4-.153-2.137-.215-1.477-.114-2.189-.147-1.363-.056-1.945-.056a19.644,19.644,0,0,0-4.021.357,8.266,8.266,0,0,0-3.021,1.2,5.386,5.386,0,0,0-1.9,2.273,8.669,8.669,0,0,0-.661,3.563,15.314,15.314,0,0,0,.225,2.952,5.294,5.294,0,0,0,.8,2.048,4.57,4.57,0,0,0,1.573,1.391,11.031,11.031,0,0,0,2.533.966c1.024.272,2.251.538,3.693.786.967.175,1.742.328,2.33.459a5.649,5.649,0,0,1,1.322.44,1.208,1.208,0,0,1,.588.617,2.738,2.738,0,0,1,.136,1,3.081,3.081,0,0,1-.136,1.052,1.127,1.127,0,0,1-.531.634,3.055,3.055,0,0,1-1.12.3,17.308,17.308,0,0,1-1.911.08c-.385,0-.837-.018-1.352-.051s-1.07-.074-1.651-.125-1.159-.108-1.736-.175-1.114-.124-1.612-.187-.928-.123-1.284-.174-.6-.1-.747-.136l-1.017,5.5c.271.062.7.141,1.284.237s1.3.192,2.138.294,1.747.181,2.754.249,2.053.1,3.156.1" transform="translate(-49.644 -4.882)" fill="#fff" fill-rule="evenodd"/>
    <rect id="Retângulo_187" data-name="Retângulo 187" width="35.032" height="35.032" rx="5" transform="translate(196.019 361.317)" fill="#e7b809"/>
    <path id="Caminho_784" data-name="Caminho 784" d="M306.437,395.957c1.153,0,2.137-.028,2.946-.079s1.488-.113,2.036-.193,1.006-.158,1.386-.243.706-.163,1-.232l-1.019-5.5c-.243.05-.628.135-1.142.243s-1.2.221-2.048.317a29.284,29.284,0,0,1-3.087.152,6.532,6.532,0,0,1-2.5-.407,3.253,3.253,0,0,1-1.5-1.216,5.141,5.141,0,0,1-.729-1.985,15.771,15.771,0,0,1-.193-2.738v-1.967a14.68,14.68,0,0,1,.2-2.726,4.455,4.455,0,0,1,.729-1.866,3.03,3.03,0,0,1,1.477-1.075,7.437,7.437,0,0,1,2.448-.339c.656,0,1.245.011,1.775.034s1.024.051,1.5.091.956.1,1.447.163,1.035.136,1.623.221l1.019-5.6q-.459-.076-1.019-.187c-.367-.073-.82-.141-1.357-.215s-1.2-.125-2-.17-1.77-.073-2.923-.073a22.537,22.537,0,0,0-4.192.34,10.167,10.167,0,0,0-3.319,1.182,7.331,7.331,0,0,0-2.4,2.3,10.738,10.738,0,0,0-1.464,3.67,24.364,24.364,0,0,0-.5,5.3,25.548,25.548,0,0,0,.475,5.3,10.841,10.841,0,0,0,1.414,3.67,7.091,7.091,0,0,0,2.364,2.3,9.99,9.99,0,0,0,3.3,1.182,23.236,23.236,0,0,0,4.254.339" transform="translate(-91.014 -4.618)" fill="#fff" fill-rule="evenodd"/>
    <path id="Caminho_785" data-name="Caminho 785" d="M365.17,374.534h3.919l.707,1.881h1.3l-3.368-8.8H366.6l-3.367,8.8h1.234Zm3.511-1.067h-3.1l1.558-4.1Zm5.983,3.056a7.576,7.576,0,0,0,1.1-.072,2.145,2.145,0,0,0,.8-.27,1.226,1.226,0,0,0,.485-.557,2.294,2.294,0,0,0,.162-.935,2.359,2.359,0,0,0-.1-.726.989.989,0,0,0-.329-.479,1.826,1.826,0,0,0-.623-.3,6.352,6.352,0,0,0-.989-.185c-.3-.032-.551-.064-.743-.1a1.635,1.635,0,0,1-.444-.126.42.42,0,0,1-.209-.2.889.889,0,0,1-.054-.341.6.6,0,0,1,.24-.539,1.732,1.732,0,0,1,.876-.156c.144,0,.307.007.491.019s.369.028.557.048.362.04.521.06.288.038.384.054l.168-.935a2.542,2.542,0,0,0-.341-.066c-.148-.02-.316-.039-.5-.06s-.389-.036-.606-.048-.431-.019-.647-.019a3.294,3.294,0,0,0-1.731.366,1.424,1.424,0,0,0-.582,1.312,2.557,2.557,0,0,0,.1.8.984.984,0,0,0,.353.491,1.876,1.876,0,0,0,.684.288q.433.1,1.1.2.373.06.6.108a1.205,1.205,0,0,1,.366.126.45.45,0,0,1,.185.192.669.669,0,0,1,.054.293,1.238,1.238,0,0,1-.054.408.482.482,0,0,1-.2.251,1.012,1.012,0,0,1-.408.132,4.985,4.985,0,0,1-.665.036c-.175,0-.365-.009-.569-.029s-.4-.045-.587-.073-.36-.058-.516-.09-.274-.06-.353-.083l-.156.923c.1.031.225.065.389.1s.344.068.54.1.4.05.617.066.424.024.623.024m6.365,0a7.577,7.577,0,0,0,1.1-.072,2.148,2.148,0,0,0,.8-.27,1.231,1.231,0,0,0,.485-.557,2.31,2.31,0,0,0,.162-.935,2.374,2.374,0,0,0-.1-.726,1,1,0,0,0-.329-.479,1.826,1.826,0,0,0-.624-.3,6.322,6.322,0,0,0-.989-.185c-.3-.032-.551-.064-.742-.1a1.625,1.625,0,0,1-.444-.126.414.414,0,0,1-.209-.2.887.887,0,0,1-.054-.341.6.6,0,0,1,.24-.539,1.731,1.731,0,0,1,.875-.156c.144,0,.308.007.492.019s.37.028.557.048.362.04.521.06.288.038.384.054l.168-.935a2.544,2.544,0,0,0-.342-.066q-.223-.029-.5-.06c-.188-.02-.39-.036-.606-.048s-.431-.019-.647-.019a3.293,3.293,0,0,0-1.731.366,1.424,1.424,0,0,0-.582,1.312,2.575,2.575,0,0,0,.1.8.989.989,0,0,0,.353.491,1.865,1.865,0,0,0,.684.288c.287.068.656.133,1.1.2.247.04.45.076.606.108a1.207,1.207,0,0,1,.365.126.45.45,0,0,1,.185.192.69.69,0,0,1,.054.293,1.278,1.278,0,0,1-.054.408.481.481,0,0,1-.2.251,1.012,1.012,0,0,1-.408.132,4.973,4.973,0,0,1-.665.036c-.175,0-.365-.009-.57-.029s-.4-.045-.588-.073-.358-.058-.514-.09-.274-.06-.354-.083l-.155.923c.1.031.225.065.389.1s.344.068.539.1.4.05.617.066.424.024.623.024m6.905.024a4.272,4.272,0,0,0,1.241-.161,2.057,2.057,0,0,0,.886-.521,2.273,2.273,0,0,0,.534-.935,4.77,4.77,0,0,0,.18-1.4,4.843,4.843,0,0,0-.174-1.4,2.168,2.168,0,0,0-.528-.923,2.024,2.024,0,0,0-.881-.509,4.368,4.368,0,0,0-1.234-.156,4.307,4.307,0,0,0-1.241.161,2.143,2.143,0,0,0-.893.516,2.235,2.235,0,0,0-.546.929,4.619,4.619,0,0,0-.185,1.4,4.738,4.738,0,0,0,.18,1.4,2.209,2.209,0,0,0,.533.928,2.027,2.027,0,0,0,.887.509,4.439,4.439,0,0,0,1.24.156m.024-.995a2.52,2.52,0,0,1-.672-.083,1.1,1.1,0,0,1-.509-.306,1.478,1.478,0,0,1-.324-.617,3.766,3.766,0,0,1-.114-1.018,3.847,3.847,0,0,1,.108-1.007,1.372,1.372,0,0,1,.318-.6,1.069,1.069,0,0,1,.5-.294,2.879,2.879,0,0,1,1.33,0,1.051,1.051,0,0,1,.5.3,1.477,1.477,0,0,1,.324.611,3.706,3.706,0,0,1,.114,1.013,3.912,3.912,0,0,1-.107,1.012,1.484,1.484,0,0,1-.312.612,1.016,1.016,0,0,1-.5.3,2.61,2.61,0,0,1-.665.078m7.06.995a5.969,5.969,0,0,0,.959-.078,8.357,8.357,0,0,0,.839-.173l-.216-.994a6.626,6.626,0,0,1-.719.144,5.853,5.853,0,0,1-.827.059,2.582,2.582,0,0,1-.672-.078,1,1,0,0,1-.485-.293,1.355,1.355,0,0,1-.294-.606,4.276,4.276,0,0,1-.1-1,4.053,4.053,0,0,1,.1-.983,1.391,1.391,0,0,1,.282-.581.868.868,0,0,1,.473-.275,2.983,2.983,0,0,1,.67-.066,5.923,5.923,0,0,1,.887.06q.4.06.671.12l.2-1.02c-.1-.024-.212-.048-.347-.071s-.281-.048-.432-.072-.309-.043-.473-.054-.321-.019-.472-.019a4.379,4.379,0,0,0-1.235.156,2.024,2.024,0,0,0-.874.5,2.153,2.153,0,0,0-.522.916,4.935,4.935,0,0,0-.173,1.409,5.12,5.12,0,0,0,.168,1.414,2.148,2.148,0,0,0,.509.923,1.967,1.967,0,0,0,.857.5,4.246,4.246,0,0,0,1.222.156m3.717-6.987h1.259v-1.474h-1.259Zm.024,6.854h1.21v-5.632h-1.21Zm4.652.085a3.7,3.7,0,0,0,.773-.078,4.657,4.657,0,0,0,.654-.185,4.608,4.608,0,0,0,.5-.222c.143-.075.251-.137.323-.185l.18.586h.971v-3.883a3.149,3.149,0,0,0-.114-.91,1.3,1.3,0,0,0-.377-.606,1.617,1.617,0,0,0-.689-.341,4.28,4.28,0,0,0-1.049-.109,8.885,8.885,0,0,0-1.313.084q-.545.085-.809.144l.169,1.007q.311-.06.8-.132a7.887,7.887,0,0,1,1.132-.072,1.892,1.892,0,0,1,.546.065.655.655,0,0,1,.317.2.724.724,0,0,1,.144.341,3.065,3.065,0,0,1,.036.509v.252c-.432,0-.811,0-1.139.012a8.374,8.374,0,0,0-.869.059,5.108,5.108,0,0,0-.665.126,2.1,2.1,0,0,0-.515.21.9.9,0,0,0-.407.527,2.957,2.957,0,0,0-.107.862,2.351,2.351,0,0,0,.131.851,1.449,1.449,0,0,0,.342.534,1.161,1.161,0,0,0,.479.275,1.993,1.993,0,0,0,.557.078m.48-.982a.918.918,0,0,1-.575-.151.779.779,0,0,1-.192-.628,2.432,2.432,0,0,1,.041-.438.437.437,0,0,1,.21-.317,1.382,1.382,0,0,1,.269-.108,2.715,2.715,0,0,1,.419-.078c.172-.019.384-.033.636-.041s.554-.012.9-.012v1.27c-.088.049-.2.1-.329.163s-.276.115-.431.167a3.94,3.94,0,0,1-.48.126,2.518,2.518,0,0,1-.473.048m6.809.958c.192,0,.4-.008.635-.024s.484-.045.755-.085l-.072-1.006c-.239.032-.433.052-.581.06s-.278.012-.39.012a.445.445,0,0,1-.384-.161,1.236,1.236,0,0,1-.12-.665v-2.781h1.462v-1.042h-1.462v-2.145l-1.21.239v1.906h-.9v1.042h.9v3.008a1.952,1.952,0,0,0,.324,1.252,1.28,1.28,0,0,0,1.042.39m5.767.072c.159,0,.334-.005.521-.017s.369-.03.546-.054.339-.049.491-.078.275-.054.371-.078l-.18-.995c-.1.024-.227.048-.371.072s-.293.045-.45.06-.311.028-.467.037-.305.012-.449.012a3.161,3.161,0,0,1-.684-.066,1.043,1.043,0,0,1-.5-.258,1.232,1.232,0,0,1-.312-.539,3.108,3.108,0,0,1-.107-.9h3.787v-.551a4.5,4.5,0,0,0-.149-1.259,1.924,1.924,0,0,0-.455-.815,1.7,1.7,0,0,0-.767-.443,3.963,3.963,0,0,0-1.086-.132,3.475,3.475,0,0,0-1.03.144,1.866,1.866,0,0,0-.809.5,2.41,2.41,0,0,0-.533.929,4.608,4.608,0,0,0-.192,1.439,5.139,5.139,0,0,0,.168,1.414,2.077,2.077,0,0,0,.522.923,2.049,2.049,0,0,0,.886.5,4.489,4.489,0,0,0,1.252.156m-1.57-3.607a2.7,2.7,0,0,1,.138-.707,1.194,1.194,0,0,1,.263-.438.912.912,0,0,1,.384-.228,1.7,1.7,0,0,1,.485-.066,2.252,2.252,0,0,1,.582.066.819.819,0,0,1,.4.228,1.01,1.01,0,0,1,.222.438,2.89,2.89,0,0,1,.072.707Zm7.228,3.584a3.487,3.487,0,0,0,.75-.084,6.286,6.286,0,0,0,.7-.2,5.276,5.276,0,0,0,.569-.234c.164-.079.286-.14.366-.179l.18.586h.983v-8.975h-1.223v3.715c-.079-.031-.2-.076-.353-.131s-.336-.113-.539-.168a6.411,6.411,0,0,0-.665-.144,4.332,4.332,0,0,0-.718-.061,2.518,2.518,0,0,0-.7.1,1.235,1.235,0,0,0-.6.4,2.317,2.317,0,0,0-.426.887,5.979,5.979,0,0,0-.161,1.553,6.439,6.439,0,0,0,.149,1.551,2.232,2.232,0,0,0,.407.887,1.214,1.214,0,0,0,.587.4,2.467,2.467,0,0,0,.689.1m.468-1.091a1.493,1.493,0,0,1-.492-.072.628.628,0,0,1-.329-.275,1.508,1.508,0,0,1-.18-.57,6.8,6.8,0,0,1-.054-.953,6.112,6.112,0,0,1,.06-.941,1.549,1.549,0,0,1,.193-.575.655.655,0,0,1,.33-.282,1.438,1.438,0,0,1,.485-.072,3.632,3.632,0,0,1,.533.042c.187.027.365.062.533.1s.319.081.456.125.244.081.323.114v2.864c-.1.048-.214.1-.353.156s-.293.109-.462.161a4.21,4.21,0,0,1-.521.126,2.942,2.942,0,0,1-.521.048m-56.165,11.392a7.51,7.51,0,0,0,1.391-.115,2.541,2.541,0,0,0,1.006-.4,1.8,1.8,0,0,0,.618-.767,3.679,3.679,0,0,0,.036-2.337,1.649,1.649,0,0,0-.521-.7,2.715,2.715,0,0,0-.881-.431q-.535-.161-1.265-.318-.564-.12-.93-.234a1.932,1.932,0,0,1-.575-.27.793.793,0,0,1-.288-.389,2.038,2.038,0,0,1-.077-.617,1.017,1.017,0,0,1,.413-.947,2.521,2.521,0,0,1,1.277-.251q.359,0,.731.03c.248.019.482.041.7.065s.418.05.6.078.318.049.413.066l.2-1.078c-.088-.024-.221-.052-.4-.084s-.388-.064-.624-.1-.493-.058-.772-.078-.556-.03-.827-.03a3.9,3.9,0,0,0-2.218.533,2.027,2.027,0,0,0-.779,1.8,3.743,3.743,0,0,0,.132,1.085,1.5,1.5,0,0,0,.455.707,2.584,2.584,0,0,0,.875.468q.551.185,1.4.377c.367.079.671.154.911.222a1.755,1.755,0,0,1,.557.246.743.743,0,0,1,.276.377,1.983,1.983,0,0,1,.077.606,1.924,1.924,0,0,1-.107.7.889.889,0,0,1-.336.419,1.468,1.468,0,0,1-.593.2,6.085,6.085,0,0,1-.87.054,6.951,6.951,0,0,1-.73-.042c-.265-.028-.52-.06-.767-.1s-.475-.073-.684-.114-.363-.072-.467-.1l-.2,1.078a2.926,2.926,0,0,0,.463.121q.306.06.689.12c.255.04.528.072.821.1s.581.037.868.037m7.708.059a4.261,4.261,0,0,0,1.24-.162,2.053,2.053,0,0,0,.887-.521,2.255,2.255,0,0,0,.533-.935,4.737,4.737,0,0,0,.18-1.4,4.871,4.871,0,0,0-.173-1.4,2.189,2.189,0,0,0-.527-.923,2.039,2.039,0,0,0-.881-.509,4.371,4.371,0,0,0-1.234-.155,4.279,4.279,0,0,0-1.242.161,2.128,2.128,0,0,0-.893.516,2.231,2.231,0,0,0-.545.928,4.612,4.612,0,0,0-.185,1.4,4.756,4.756,0,0,0,.179,1.4,2.23,2.23,0,0,0,.534.93,2.022,2.022,0,0,0,.886.509,4.44,4.44,0,0,0,1.241.156m.025-.994a2.47,2.47,0,0,1-.672-.085,1.091,1.091,0,0,1-.509-.305,1.471,1.471,0,0,1-.324-.618,4.664,4.664,0,0,1-.006-2.025,1.371,1.371,0,0,1,.318-.6,1.065,1.065,0,0,1,.5-.293,2.878,2.878,0,0,1,1.33,0,1.046,1.046,0,0,1,.5.3,1.5,1.5,0,0,1,.324.611,3.768,3.768,0,0,1,.114,1.013,3.873,3.873,0,0,1-.108,1.013,1.48,1.48,0,0,1-.311.611,1.03,1.03,0,0,1-.5.3,2.668,2.668,0,0,1-.665.078m5.178.862h1.222v-4.59h1.415v-1.042h-1.415v-1.031a2.6,2.6,0,0,1,.037-.473.555.555,0,0,1,.185-.318,1.347,1.347,0,0,1,.45-.234,7.246,7.246,0,0,1,.827-.209l-.227-1.091a8.134,8.134,0,0,0-1.324.324,2.086,2.086,0,0,0-.755.431,1.187,1.187,0,0,0-.336.6,3.83,3.83,0,0,0-.078.828v1.174h-.947v1.042h.947Zm6.1.059c.192,0,.4-.007.635-.024s.484-.045.756-.084l-.072-1.007c-.241.032-.435.052-.582.061s-.277.012-.39.012a.444.444,0,0,1-.383-.162,1.24,1.24,0,0,1-.12-.665v-2.78h1.463v-1.042h-1.463v-2.146l-1.21.24v1.906h-.9v1.042h.9v3.009a1.949,1.949,0,0,0,.324,1.252,1.28,1.28,0,0,0,1.042.389M390,386.8h1.03l1.439-4.062,1.439,4.062h1.03l1.833-5.68h-1.126l-1.235,3.954-1.378-3.895h-.995l-1.4,3.895-1.223-3.954h-1.258Zm9.578.036a3.7,3.7,0,0,0,.772-.077,4.492,4.492,0,0,0,.653-.186,4.309,4.309,0,0,0,.5-.222c.144-.076.251-.137.324-.185l.18.587h.969v-3.883a3.147,3.147,0,0,0-.114-.911,1.3,1.3,0,0,0-.377-.606,1.634,1.634,0,0,0-.689-.341,4.364,4.364,0,0,0-1.049-.109,8.707,8.707,0,0,0-1.312.085q-.546.085-.809.144l.168,1.006c.207-.04.473-.083.8-.132a7.9,7.9,0,0,1,1.133-.072,1.854,1.854,0,0,1,.545.066.642.642,0,0,1,.318.2.713.713,0,0,1,.144.342,3.107,3.107,0,0,1,.036.509v.251q-.647,0-1.139.012a8.657,8.657,0,0,0-.869.059,5.094,5.094,0,0,0-.665.127,2.16,2.16,0,0,0-.515.209.909.909,0,0,0-.408.527,2.967,2.967,0,0,0-.107.862,2.357,2.357,0,0,0,.132.852,1.444,1.444,0,0,0,.342.533,1.152,1.152,0,0,0,.479.276,2,2,0,0,0,.558.077m.479-.982a.924.924,0,0,1-.575-.15.781.781,0,0,1-.192-.629,2.3,2.3,0,0,1,.043-.437.434.434,0,0,1,.21-.318,1.3,1.3,0,0,1,.268-.107,2.452,2.452,0,0,1,.42-.078c.171-.021.384-.034.635-.043s.554-.012.9-.012v1.271q-.132.071-.329.161a4.508,4.508,0,0,1-.431.168,3.954,3.954,0,0,1-.48.125,2.4,2.4,0,0,1-.473.048m5.084.9h1.222v-4.086a2.193,2.193,0,0,1,.455-.2c.184-.059.376-.114.575-.161s.4-.09.6-.126.381-.062.54-.078l-.145-1.126a4.264,4.264,0,0,0-1.2.341,9.646,9.646,0,0,0-.886.462l-.18-.659h-.982Zm7.563.132c.16,0,.334-.006.522-.018s.37-.03.545-.054.34-.049.492-.077.275-.054.371-.079l-.18-.995c-.1.025-.227.049-.371.072s-.294.044-.45.06-.312.028-.468.036-.305.012-.448.012a3.263,3.263,0,0,1-.684-.065,1.061,1.061,0,0,1-.5-.258,1.222,1.222,0,0,1-.311-.54,3.116,3.116,0,0,1-.108-.9h3.787v-.551a4.472,4.472,0,0,0-.149-1.258,1.909,1.909,0,0,0-.456-.816,1.712,1.712,0,0,0-.767-.443,3.955,3.955,0,0,0-1.084-.131,3.5,3.5,0,0,0-1.03.143,1.88,1.88,0,0,0-.809.5,2.414,2.414,0,0,0-.533.93,4.6,4.6,0,0,0-.192,1.438,5.116,5.116,0,0,0,.168,1.414,1.95,1.95,0,0,0,1.407,1.427,4.5,4.5,0,0,0,1.252.156m-1.57-3.607a2.771,2.771,0,0,1,.138-.707,1.187,1.187,0,0,1,.265-.437.9.9,0,0,1,.383-.229,1.734,1.734,0,0,1,.486-.066,2.306,2.306,0,0,1,.582.066.813.813,0,0,1,.4.229,1,1,0,0,1,.221.437,2.823,2.823,0,0,1,.072.707Zm-43.948,13.931a10.215,10.215,0,0,0,1.493-.09,6.7,6.7,0,0,0,.976-.21l-.227-1.078c-.064.016-.168.04-.311.072s-.315.064-.511.1-.414.058-.653.078-.487.029-.742.029a3.365,3.365,0,0,1-1.061-.149,1.58,1.58,0,0,1-.742-.509,2.356,2.356,0,0,1-.438-.959,6.458,6.458,0,0,1-.144-1.486v-.611a6.728,6.728,0,0,1,.138-1.5,2.166,2.166,0,0,1,.431-.929,1.571,1.571,0,0,1,.737-.48,3.6,3.6,0,0,1,1.054-.138,9.023,9.023,0,0,1,1.282.083c.384.056.7.108.947.157l.227-1.079a8.35,8.35,0,0,0-.881-.192,9.157,9.157,0,0,0-1.552-.108,6.551,6.551,0,0,0-1.469.156,2.475,2.475,0,0,0-1.174.63,3.143,3.143,0,0,0-.779,1.366,10.152,10.152,0,0,0-.005,4.728,3.055,3.055,0,0,0,.772,1.354,2.457,2.457,0,0,0,1.169.617,6.735,6.735,0,0,0,1.462.149m6.87.012a4.3,4.3,0,0,0,1.24-.161,2.056,2.056,0,0,0,.886-.521,2.278,2.278,0,0,0,.534-.935,4.775,4.775,0,0,0,.18-1.4,4.842,4.842,0,0,0-.174-1.4,2.172,2.172,0,0,0-.527-.923,2.04,2.04,0,0,0-.882-.51,4.372,4.372,0,0,0-1.234-.156,4.318,4.318,0,0,0-1.24.161,2.131,2.131,0,0,0-.893.516,2.237,2.237,0,0,0-.545.929,4.567,4.567,0,0,0-.187,1.4,4.776,4.776,0,0,0,.18,1.4,2.232,2.232,0,0,0,.533.928,2.026,2.026,0,0,0,.887.509,4.44,4.44,0,0,0,1.241.156m.023-.994a2.464,2.464,0,0,1-.67-.085,1.082,1.082,0,0,1-.511-.305,1.478,1.478,0,0,1-.323-.616,3.8,3.8,0,0,1-.114-1.02,3.848,3.848,0,0,1,.107-1.006,1.388,1.388,0,0,1,.318-.6,1.07,1.07,0,0,1,.5-.293,2.878,2.878,0,0,1,1.33,0,1.044,1.044,0,0,1,.5.3,1.46,1.46,0,0,1,.324.611,3.693,3.693,0,0,1,.114,1.012,3.912,3.912,0,0,1-.107,1.013,1.474,1.474,0,0,1-.312.612,1.014,1.014,0,0,1-.5.3,2.574,2.574,0,0,1-.665.078" transform="translate(-126.002 -3.122)" fill="#004f92" fill-rule="evenodd"/>
    <path id="Caminho_786" data-name="Caminho 786" d="M394.887,421.86h1.222v-4.087a2.176,2.176,0,0,1,.378-.227,4.193,4.193,0,0,1,.462-.192,3.545,3.545,0,0,1,.479-.132,2.343,2.343,0,0,1,.456-.048.786.786,0,0,1,.641.2,1.071,1.071,0,0,1,.149.64v3.848h1.21v-4.087a3.782,3.782,0,0,1,.407-.234,3.453,3.453,0,0,1,.462-.191,4.16,4.16,0,0,1,.468-.126,2.177,2.177,0,0,1,.437-.048c.336,0,.552.064.648.192a1.111,1.111,0,0,1,.144.647v3.848h1.21v-4.207a1.641,1.641,0,0,0-.365-1.2,1.566,1.566,0,0,0-1.133-.36,3.027,3.027,0,0,0-.641.073,4.337,4.337,0,0,0-.641.192,5.955,5.955,0,0,0-.593.263c-.189.1-.357.192-.509.288a1.127,1.127,0,0,0-.473-.6,1.711,1.711,0,0,0-.918-.216,3.042,3.042,0,0,0-.641.073,4.766,4.766,0,0,0-.635.185,6.174,6.174,0,0,0-.581.251,5,5,0,0,0-.48.271l-.168-.648h-.994Zm10.944,2.4h1.21v-2.8c.08.032.2.075.36.132s.341.112.545.168a6.438,6.438,0,0,0,.66.143,4.128,4.128,0,0,0,.712.061,2.628,2.628,0,0,0,.7-.1,1.249,1.249,0,0,0,.606-.4,2.311,2.311,0,0,0,.426-.893,6.09,6.09,0,0,0,.161-1.558,6.335,6.335,0,0,0-.15-1.546,2.225,2.225,0,0,0-.407-.881,1.169,1.169,0,0,0-.588-.4,2.607,2.607,0,0,0-.689-.09,3.393,3.393,0,0,0-.755.085,6.024,6.024,0,0,0-.694.2q-.323.114-.575.227a3.913,3.913,0,0,0-.372.187l-.168-.563h-.983Zm3.068-3.345a3.683,3.683,0,0,1-.533-.041c-.189-.028-.366-.063-.534-.1s-.322-.082-.462-.127-.249-.081-.329-.114v-2.863a3.9,3.9,0,0,1,.36-.156c.144-.056.3-.111.467-.162a4.383,4.383,0,0,1,.522-.126,2.978,2.978,0,0,1,.521-.048,1.445,1.445,0,0,1,.486.072.637.637,0,0,1,.322.276,1.56,1.56,0,0,1,.187.564,5.961,5.961,0,0,1,.059.947,6.1,6.1,0,0,1-.059.953,1.573,1.573,0,0,1-.192.575.656.656,0,0,1-.329.282,1.441,1.441,0,0,1-.485.071m5.43,1.031a3.694,3.694,0,0,0,.773-.078,4.647,4.647,0,0,0,.653-.185,4.525,4.525,0,0,0,.5-.222c.144-.076.251-.138.324-.186l.18.588h.971v-3.884a3.144,3.144,0,0,0-.115-.911,1.3,1.3,0,0,0-.377-.6,1.614,1.614,0,0,0-.689-.341,4.308,4.308,0,0,0-1.049-.108,8.9,8.9,0,0,0-1.313.083c-.363.056-.633.1-.808.144l.168,1.006c.208-.04.473-.083.8-.131a7.666,7.666,0,0,1,1.132-.072,1.894,1.894,0,0,1,.545.066.647.647,0,0,1,.318.2.714.714,0,0,1,.144.341,3.128,3.128,0,0,1,.036.51v.251q-.647,0-1.139.013a8.34,8.34,0,0,0-.869.06,4.876,4.876,0,0,0-.665.125,2.135,2.135,0,0,0-.514.209.9.9,0,0,0-.408.528,2.934,2.934,0,0,0-.108.863,2.35,2.35,0,0,0,.132.851,1.425,1.425,0,0,0,.342.533,1.158,1.158,0,0,0,.479.276,2,2,0,0,0,.558.078m.479-.982a.929.929,0,0,1-.575-.149.784.784,0,0,1-.192-.63,2.311,2.311,0,0,1,.043-.438.437.437,0,0,1,.21-.318,1.36,1.36,0,0,1,.269-.108,2.712,2.712,0,0,1,.42-.078c.171-.02.383-.034.635-.042s.554-.012.905-.012v1.271c-.088.048-.2.1-.33.161a4.16,4.16,0,0,1-.431.168,3.741,3.741,0,0,1-.48.125,2.4,2.4,0,0,1-.473.049m5.084.9h1.222v-4.184a2.794,2.794,0,0,1,.336-.161,4.247,4.247,0,0,1,.467-.162q.252-.071.521-.125a2.569,2.569,0,0,1,.5-.054.906.906,0,0,1,.677.192.959.959,0,0,1,.174.647v3.848H425v-4.243a1.5,1.5,0,0,0-.4-1.163,1.7,1.7,0,0,0-1.174-.36,3.245,3.245,0,0,0-.719.085,6.409,6.409,0,0,0-.7.2q-.33.114-.582.227a3.875,3.875,0,0,0-.371.187l-.18-.563h-.982Zm8.954-.084-.971,2.481H429.1l3.141-8.03h-1.15l-1.583,4.123s-.039-.1-.119-.306-.18-.46-.3-.768-.251-.638-.4-.995-.275-.684-.4-.988-.22-.558-.3-.762l-.12-.305h-1.295Z" transform="translate(-142.148 -27.895)" fill="#004f92" fill-rule="evenodd"/>
  </g>
</svg>
