<svg xmlns="http://www.w3.org/2000/svg" width="386.316" height="108.774" viewBox="0 0 386.316 108.774">
  <g id="Grupo_1384" data-name="Grupo 1384" transform="translate(-1338.684 -2666.5)">
    <text id="IA_Inteligência_Artificial" data-name="IA = Inteligência Artificial" transform="translate(1459 2692.5)" fill="#ffba00" font-size="24" font-family="SegoeUI, Segoe UI"><tspan x="0" y="0">IA = Inteligência Artificial</tspan></text>
    <g id="Grupo_1231" data-name="Grupo 1231" transform="translate(786.258 2450.498)">
      <path id="Caminho_804" data-name="Caminho 804" d="M686.323,272.741l-2.574,2.151c-.84.7-1.924,1.44-3.172,2.38-.624.466-1.355.9-2.1,1.4s-1.546,1.027-2.438,1.51a64.489,64.489,0,0,1-13.326,6,72.986,72.986,0,0,1-18.688,3.391,74.649,74.649,0,0,1-9.448-.273c1.614-3.228,3.04-6.554,4.381-9.959a53.106,53.106,0,0,0,3.536-13.494,29.611,29.611,0,0,0-1.774-14.264,22.036,22.036,0,0,0-3.9-6.394c-.445-.531-.847-.9-1.261-1.317a16.791,16.791,0,0,0-1.5-1.271,18.852,18.852,0,0,0-3.273-2,23.026,23.026,0,0,0-14.8-1.474,22.4,22.4,0,0,0-12.5,7.425,22.886,22.886,0,0,0-5,13.133,26.158,26.158,0,0,0,11.376,23.248,40.935,40.935,0,0,0,11.378,5.543,59.611,59.611,0,0,0,8.208,1.942,61.2,61.2,0,0,1-14.936,18A56.132,56.132,0,0,1,595.2,318.459a76.95,76.95,0,0,1-18.5,2.991,31.613,31.613,0,0,1-13.826-2.421,18.227,18.227,0,0,1-7.092-5.271,15.315,15.315,0,0,1-1.3-1.93l-.369-.71-.026-.051a.9.9,0,0,0-1.121-.407.859.859,0,0,0-.486,1.127l.347.83a16.873,16.873,0,0,0,1.281,2.3,19.985,19.985,0,0,0,7.59,6.443,33.08,33.08,0,0,0,15.052,3.415,75.735,75.735,0,0,0,19.56-2.643,57.952,57.952,0,0,0,20.841-10.576A65.024,65.024,0,0,0,633.4,291.573c.106-.2.2-.4.307-.6a76.353,76.353,0,0,0,10.392.3,74.62,74.62,0,0,0,19.132-3.557,71.592,71.592,0,0,0,13.66-6.125c.918-.489,1.736-1.033,2.513-1.532s1.519-.944,2.173-1.423c1.3-.961,2.454-1.747,3.3-2.443l2.589-2.134.005,0a.851.851,0,0,0,.1-1.22A.9.9,0,0,0,686.323,272.741Zm-75.317,8.676a24.075,24.075,0,0,1-10.186-21.582,20.429,20.429,0,0,1,4.63-11.665c5.573-6.55,16.2-8.646,23.9-4.783a15.612,15.612,0,0,1,2.671,1.716,14.678,14.678,0,0,1,1.153,1.012,16.306,16.306,0,0,1,1.129,1.223,18.8,18.8,0,0,1,3.169,5.457,26.164,26.164,0,0,1,1.3,12.681,52.707,52.707,0,0,1-3.507,12.485,113.251,113.251,0,0,1-4.928,10.815,57.783,57.783,0,0,1-8.519-2.021A38.186,38.186,0,0,1,611.006,281.417Z" transform="translate(0)" fill="#ffba00"/>
      <path id="Caminho_805" data-name="Caminho 805" d="M668.261,261.524a1.156,1.156,0,0,0-1.532-.574,22.667,22.667,0,0,1-3.755,1.33c-.642.165-1.291.3-1.947.408a15.321,15.321,0,0,1-1.979.226.868.868,0,1,0,.225,1.716l.006,0c.655-.139,1.342-.265,2.009-.363.67-.116,1.344-.219,2.02-.317.5-.073,1.016-.126,1.523-.191a22.976,22.976,0,0,0-1.119,2.594c-.153.391-.258.795-.379,1.2a10.178,10.178,0,0,0-.3,1.216,8.3,8.3,0,0,0-.087,2.551l.133,1.036a1.391,1.391,0,0,0,2.766-.294c0-.027-.007-.055-.01-.081l.028.007a9.255,9.255,0,0,0,1.068-2.224,11.785,11.785,0,0,0,.322-1.16c.092-.39.2-.776.271-1.174.335-1.572.5-3.2.758-4.822l.067-.415A1.149,1.149,0,0,0,668.261,261.524Z" transform="translate(25.377 4.687)" fill="#ffba00"/>
    </g>
  </g>
</svg>
