<svg xmlns="http://www.w3.org/2000/svg" width="21.992" height="22.218" viewBox="0 0 21.992 22.218">
  <g id="Grupo_1267" data-name="Grupo 1267" transform="translate(-825 -8415)">
    <path id="Caminho_474" data-name="Caminho 474" d="M1165.337,67.97a5.828,5.828,0,0,0-5.542-4.667c-.251-.015-.5-.068-.751-.1h-8.8c-.592.087-1.193.14-1.776.268a5.889,5.889,0,0,0-4.719,5.637c-.015.255-.067.507-.1.761V78.75c.082.581.135,1.168.253,1.742a5.872,5.872,0,0,0,5.593,4.813c.288.016.574.072.861.11h8.467c.7-.1,1.415-.148,2.1-.313a5.848,5.848,0,0,0,4.607-5.593c.019-.328.072-.654.11-.981V69.974C1165.543,69.306,1165.492,68.625,1165.337,67.97Zm-1.786,11.156a4.264,4.264,0,0,1-.961,2.774,4.022,4.022,0,0,1-3.118,1.4c-1.629.049-3.26.012-4.89.012v0c-1.557,0-3.115.044-4.67-.01a3.951,3.951,0,0,1-4.167-4.192c-.067-3.236-.057-6.476,0-9.713a3.812,3.812,0,0,1,3.063-3.942,12.1,12.1,0,0,1,2.456-.233c2.693,0,5.387,0,8.079.082a3.96,3.96,0,0,1,4.2,4.272C1163.611,72.76,1163.58,75.944,1163.55,79.126Z" transform="translate(-318.65 8351.802)" fill="#fff"/>
    <path id="Caminho_475" data-name="Caminho 475" d="M1204.471,80.636a1.371,1.371,0,0,1-1.354-1.322,1.329,1.329,0,0,1,1.312-1.344,1.28,1.28,0,0,1,1.334,1.3A1.33,1.33,0,0,1,1204.471,80.636Z" transform="translate(-362.591 8340.887)" fill="#fff"/>
    <path id="Caminho_476" data-name="Caminho 476" d="M1169.835,83.915a5.7,5.7,0,1,0,5.6,5.751A5.632,5.632,0,0,0,1169.835,83.915Zm-.058,9.38a3.682,3.682,0,1,1,3.664-3.677A3.633,3.633,0,0,1,1169.776,93.294Z" transform="translate(-333.802 8336.494)" fill="#fff"/>
  </g>
</svg>
