<svg xmlns="http://www.w3.org/2000/svg" width="20.344" height="20.308" viewBox="0 0 20.344 20.308">
  <g id="Grupo_1266" data-name="Grupo 1266" transform="translate(-825 -8260)">
    <path id="Caminho_471" data-name="Caminho 471" d="M1329.985,71.3h4.217V84.864h-4.217Zm2.109-6.743A2.444,2.444,0,1,1,1329.649,67a2.445,2.445,0,0,1,2.445-2.444" transform="translate(-504.649 8195.444)" fill="#fff"/>
    <path id="Caminho_472" data-name="Caminho 472" d="M1356.834,89.09h4.044v1.854h.056a4.43,4.43,0,0,1,3.989-2.191c4.269,0,5.058,2.81,5.058,6.462v7.441h-4.214v-6.6c0-1.573-.029-3.6-2.191-3.6-2.194,0-2.53,1.714-2.53,3.483v6.711h-4.213Z" transform="translate(-524.637 8177.653)" fill="#fff"/>
  </g>
</svg>
