<svg xmlns="http://www.w3.org/2000/svg" width="53.491" height="53.843" viewBox="0 0 53.491 53.843">
  <g id="Grupo_1299" data-name="Grupo 1299" transform="translate(1 1)">
    <g id="Grupo_1348" data-name="Grupo 1348" transform="translate(0 0)">
      <path id="Caminho_819" data-name="Caminho 819" d="M414.531-74.766l6.244-.835-.991-7.287-6.218.835c-.208-.626-.456-1.238-.717-1.839l5.136-3.611-4.236-6.022-5.136,3.611c-.469-.457-.978-.887-1.486-1.3l2.894-5.566-6.532-3.39L400.6-94.607a20.061,20.061,0,0,0-2.816-.613v-6.752h-7.365v7.1a20.856,20.856,0,0,0-2.059.613l-3.22-5.4-6.322,3.741,3.206,5.41c-.482.443-.951.9-1.408,1.382l-5.331-3.311L371.4-86.187l5.331,3.312A18.717,18.717,0,0,0,376.114-81l-6.269-.482-.561,7.339,6.244.482a19.045,19.045,0,0,0,.326,1.956l-5.775,2.451,2.881,6.766,5.762-2.452c.378.548.769,1.082,1.186,1.591l-3.988,4.836,5.67,4.68,3.988-4.837a18.763,18.763,0,0,0,1.787.873l-1.3,6.127,7.183,1.539,1.316-6.14c.144,0,.287.013.443.013a15.221,15.221,0,0,0,1.538-.078l1.656,6.061,7.091-1.943-1.656-6.061a17.163,17.163,0,0,0,1.721-.965l4.276,4.615,5.4-4.993-4.276-4.615a19.693,19.693,0,0,0,1.095-1.643l5.919,2.125,2.49-6.922L414.335-72.8A19.612,19.612,0,0,0,414.531-74.766Z" transform="translate(-369.284 101.972)" fill="rgba(0,0,0,0)" stroke="#0073ad" stroke-linecap="round" stroke-linejoin="round" stroke-width="2"/>
      <circle id="Elipse_35" data-name="Elipse 35" cx="10.49" cy="10.49" r="10.49" transform="translate(15.484 15.484)" fill="#0073ad"/>
    </g>
  </g>
</svg>
