<svg xmlns="http://www.w3.org/2000/svg" width="50.76" height="61.334" viewBox="0 0 50.76 61.334">
  <g id="Grupo_1347" data-name="Grupo 1347" transform="translate(-2096 -4702)">
    <g id="Grupo_1301" data-name="Grupo 1301" transform="translate(2096 4702)">
      <g id="Grupo_1343" data-name="Grupo 1343" transform="translate(0)">
        <g id="Grupo_1340" data-name="Grupo 1340" transform="translate(0)">
          <g id="Grupo_1339" data-name="Grupo 1339">
            <path id="Caminho_824" data-name="Caminho 824" d="M90.533,53.283,84.1,45.011a9.314,9.314,0,0,0,5.091-3.769c1.515-2.619.83-5.816.167-8.9a24.32,24.32,0,0,1-.716-4.843,24.312,24.312,0,0,1,.716-4.847c.659-3.09,1.348-6.285-.167-8.9C87.62,11.036,84.46,10.032,81.4,9.064a22.647,22.647,0,0,1-4.4-1.722,21.483,21.483,0,0,1-3.522-2.855C71.218,2.383,68.647,0,65.375,0s-5.843,2.383-8.111,4.486a21.488,21.488,0,0,1-3.521,2.856,22.641,22.641,0,0,1-4.395,1.717c-3.056.969-6.216,1.972-7.785,4.684-1.515,2.619-.83,5.816-.167,8.9a24.311,24.311,0,0,1,.715,4.847,24.312,24.312,0,0,1-.716,4.847c-.659,3.09-1.348,6.285.167,8.9a9.314,9.314,0,0,0,5.1,3.768l-6.44,8.273a1.058,1.058,0,0,0,.967,1.7l7.561-.944,1.866,6.531a1.057,1.057,0,0,0,.815.748,1.078,1.078,0,0,0,.2.019,1.057,1.057,0,0,0,.835-.408l6.753-8.686a9.778,9.778,0,0,0,6.159,2.749,9.778,9.778,0,0,0,6.159-2.749l6.753,8.683a1.057,1.057,0,0,0,.835.411,1.079,1.079,0,0,0,.2-.019,1.057,1.057,0,0,0,.815-.748l1.866-6.53,7.561.944a1.057,1.057,0,0,0,.967-1.7Zm-38.461,4.7-1.543-5.4a1.058,1.058,0,0,0-1.147-.758l-5.922.74,5.308-6.823.585.187a22.64,22.64,0,0,1,4.391,1.717A21.483,21.483,0,0,1,57.266,50.5l.364.336Zm13.3-5.109c-2.443,0-4.5-1.9-6.674-3.921a23.31,23.31,0,0,0-3.9-3.138,24.52,24.52,0,0,0-4.815-1.9c-2.795-.887-5.435-1.725-6.594-3.728-1.106-1.913-.535-4.579.071-7.4a25.9,25.9,0,0,0,.764-5.287,25.885,25.885,0,0,0-.762-5.287c-.606-2.822-1.177-5.488-.071-7.4,1.163-2,3.8-2.84,6.594-3.728a24.527,24.527,0,0,0,4.814-1.9,23.309,23.309,0,0,0,3.9-3.138c2.177-2.018,4.232-3.921,6.675-3.921s4.5,1.9,6.674,3.921a23.31,23.31,0,0,0,3.9,3.138,24.519,24.519,0,0,0,4.815,1.9c2.795.887,5.435,1.725,6.594,3.728,1.106,1.913.535,4.579-.071,7.4a25.9,25.9,0,0,0-.764,5.287,25.885,25.885,0,0,0,.762,5.287c.606,2.822,1.177,5.488.071,7.4-1.163,2-3.8,2.84-6.594,3.728a24.527,24.527,0,0,0-4.814,1.9,23.309,23.309,0,0,0-3.9,3.138C69.873,50.971,67.818,52.874,65.375,52.874Zm16-1.049a1.058,1.058,0,0,0-1.147.758l-1.548,5.4-5.556-7.143.364-.336a21.489,21.489,0,0,1,3.521-2.856A22.641,22.641,0,0,1,81.4,45.93l.585-.187L87.3,52.565Z" transform="translate(-39.995)" fill="#0073ad"/>
          </g>
        </g>
        <g id="Grupo_1342" data-name="Grupo 1342" transform="translate(6.346 8.46)">
          <g id="Grupo_1341" data-name="Grupo 1341">
            <path id="Caminho_825" data-name="Caminho 825" d="M107.035,64a19.035,19.035,0,1,0,19.035,19.035A19.035,19.035,0,0,0,107.035,64Zm0,35.954a16.92,16.92,0,1,1,16.92-16.92A16.92,16.92,0,0,1,107.035,99.954Z" transform="translate(-88 -64)" fill="#0073ad"/>
          </g>
        </g>
      </g>
      <path id="Caminho_826" data-name="Caminho 826" d="M714.1-175.771l5.737.869a.939.939,0,0,1,.511,1.6l-4.179,4.025a.939.939,0,0,0-.275.829l.947,5.725a.939.939,0,0,1-1.368.981l-5.12-2.731a.94.94,0,0,0-.873-.005l-5.152,2.669a.939.939,0,0,1-1.356-1l1.016-5.713a.939.939,0,0,0-.265-.832l-4.131-4.075a.938.938,0,0,1,.53-1.6l5.747-.8a.938.938,0,0,0,.71-.509l2.6-5.188a.939.939,0,0,1,1.683.01l2.537,5.218A.939.939,0,0,0,714.1-175.771Z" transform="translate(-684.439 198.909)" fill="#0073ad"/>
    </g>
  </g>
</svg>
