<svg xmlns="http://www.w3.org/2000/svg" width="42.158" height="38.99" viewBox="0 0 42.158 38.99">
  <g id="Grupo_1359" data-name="Grupo 1359" transform="translate(-256.584 -406.904)">
    <path id="Caminho_835" data-name="Caminho 835" d="M272.261,428.917v16.977H256.584v-13.4q0-10.883,2.6-15.758a21.857,21.857,0,0,1,10.8-9.828l3.574,5.686a13.086,13.086,0,0,0-6.581,5.563q-2.111,3.7-2.354,10.763Zm25.181,0v16.977H281.765v-13.4q0-10.883,2.6-15.758a21.853,21.853,0,0,1,10.8-9.828l3.574,5.686a13.079,13.079,0,0,0-6.58,5.563q-2.113,3.7-2.356,10.763Z" fill="#0f4c81"/>
  </g>
</svg>
