<svg xmlns="http://www.w3.org/2000/svg" width="72.379" height="67.828" viewBox="0 0 72.379 67.828">
  <g id="Grupo_1346" data-name="Grupo 1346" transform="translate(-2854 -4128.599)">
    <g id="Grupo_1300" data-name="Grupo 1300" transform="translate(2855 4130)">
      <g id="Grupo_1332" data-name="Grupo 1332" transform="translate(0 6.029)">
        <path id="Caminho_820" data-name="Caminho 820" d="M225.606,99.69l-4.094,28.745a5.445,5.445,0,0,1-5.388,4.678h-.134V99.9l3.187-.205Z" transform="translate(-207.502 -73.714)" fill="#fafbfc" stroke="#0073ad" stroke-miterlimit="10" stroke-width="2"/>
        <g id="Grupo_1331" data-name="Grupo 1331">
          <path id="Caminho_821" data-name="Caminho 821" d="M250.585,87.993a6.824,6.824,0,0,1-6.815,6.823V81.17A6.824,6.824,0,0,1,250.585,87.993Z" transform="translate(-213.369 -69.803)" fill="#fafbfc" stroke="#0073ad" stroke-miterlimit="10" stroke-width="2"/>
          <path id="Caminho_822" data-name="Caminho 822" d="M231.916,71.38v29.092a6.76,6.76,0,0,0-6.752-6.76H213.016a7.786,7.786,0,1,1,0-15.571h12.148A6.757,6.757,0,0,0,231.916,71.38Z" transform="translate(-205.23 -67.736)" fill="none" stroke="#0073ad" stroke-miterlimit="10" stroke-width="2"/>
          <line id="Linha_11" data-name="Linha 11" y2="15.153" transform="translate(12.591 10.402)" fill="none" stroke="#0073ad" stroke-miterlimit="10" stroke-width="2"/>
          <path id="Caminho_823" data-name="Caminho 823" d="M242.775,68.614v32.16a1.858,1.858,0,0,1-3.715,0V68.614a1.858,1.858,0,0,1,3.715,0Z" transform="translate(-212.374 -66.76)" fill="none" stroke="#0073ad" stroke-miterlimit="10" stroke-width="2"/>
        </g>
      </g>
      <g id="Grupo_1337" data-name="Grupo 1337" transform="translate(38.978 0)">
        <g id="Grupo_1333" data-name="Grupo 1333">
          <line id="Linha_12" data-name="Linha 12" y1="4.533" x2="5.953" transform="translate(13.947)" fill="none" stroke="#0073ad" stroke-linecap="round" stroke-linejoin="round" stroke-width="2"/>
          <line id="Linha_13" data-name="Linha 13" y1="6.615" x2="8.687" transform="translate(0 8.538)" fill="none" stroke="#0073ad" stroke-linecap="round" stroke-linejoin="round" stroke-width="2"/>
        </g>
        <g id="Grupo_1334" data-name="Grupo 1334" transform="translate(1.77 9.501)">
          <line id="Linha_14" data-name="Linha 14" x1="6.675" y2="3.381" transform="translate(0 7.922)" fill="none" stroke="#0073ad" stroke-linecap="round" stroke-linejoin="round" stroke-width="2"/>
          <line id="Linha_15" data-name="Linha 15" x1="9.74" y2="4.935" transform="translate(12.572)" fill="none" stroke="#0073ad" stroke-linecap="round" stroke-linejoin="round" stroke-width="2"/>
        </g>
        <g id="Grupo_1335" data-name="Grupo 1335" transform="translate(0 32.703)">
          <line id="Linha_16" data-name="Linha 16" x2="5.953" y2="4.533" transform="translate(13.947 10.62)" fill="none" stroke="#0073ad" stroke-linecap="round" stroke-linejoin="round" stroke-width="2"/>
          <path id="Caminho_833" data-name="Caminho 833" d="M0,0,8.687,6.615" fill="none" stroke="#0073ad" stroke-linecap="round" stroke-width="2"/>
        </g>
        <g id="Grupo_1336" data-name="Grupo 1336" transform="translate(1.77 27.051)">
          <line id="Linha_18" data-name="Linha 18" x1="6.675" y1="3.381" stroke-width="2" stroke="#0073ad" stroke-linecap="round" stroke-linejoin="round" fill="none"/>
          <line id="Linha_19" data-name="Linha 19" x1="9.74" y1="4.935" transform="translate(12.572 6.369)" fill="none" stroke="#0073ad" stroke-linecap="round" stroke-linejoin="round" stroke-width="2"/>
        </g>
        <line id="Linha_20" data-name="Linha 20" x2="4.016" transform="translate(6.025 23.961)" fill="none" stroke="#0073ad" stroke-linecap="round" stroke-linejoin="round" stroke-width="2"/>
        <line id="Linha_21" data-name="Linha 21" x2="8.479" transform="translate(14.342 23.961)" fill="none" stroke="#0073ad" stroke-linecap="round" stroke-linejoin="round" stroke-width="2"/>
        <line id="Linha_22" data-name="Linha 22" x2="3.469" transform="translate(27.932 24.007)" fill="none" stroke="#0073ad" stroke-linecap="round" stroke-linejoin="round" stroke-width="2"/>
      </g>
    </g>
  </g>
</svg>
