<svg xmlns="http://www.w3.org/2000/svg" width="280" height="94.181" viewBox="0 0 280 94.181">
  <g id="Grupo_1383" data-name="Grupo 1383" transform="translate(-1171 -2563.684)">
    <text id="SOF_Software" data-name="SOF = Software" transform="translate(1285 2591.5)" fill="#ffba00" font-size="24" font-family="SegoeUI, Segoe UI"><tspan x="0" y="0">SOF = Software</tspan></text>
    <g id="Grupo_1230" data-name="Grupo 1230" transform="matrix(0.485, -0.875, 0.875, 0.485, 1009.291, 2722.071)">
      <path id="Caminho_802" data-name="Caminho 802" d="M153.492,101.035l1.089-.145c.713-.084,1.738-.267,3.1-.374,1.35-.153,2.985-.241,4.859-.342l2.99-.047c1.052.032,2.16.04,3.315.1,2.306.125,4.808.3,7.426.7a82.973,82.973,0,0,1,8.179,1.583,85.966,85.966,0,0,1,8.547,2.556,83.8,83.8,0,0,1,8.526,3.536,82.83,82.83,0,0,1,8.1,4.465,78.251,78.251,0,0,1,7.34,5.168c1.129.922,2.245,1.823,3.278,2.773,1.059.921,2.05,1.873,3.008,2.8s1.824,1.905,2.7,2.81c.834.941,1.632,1.859,2.366,2.765.713.923,1.439,1.773,2.045,2.647s1.209,1.68,1.729,2.47l1.417,2.239c.423.7.775,1.365,1.112,1.953s.625,1.119.849,1.6l.587,1.2.476,1a.662.662,0,0,1-1.133.674l-.016-.022-.646-.883c-.428-.571-1-1.441-1.805-2.492l-1.306-1.755-1.59-2.022c-1.138-1.439-2.476-3.015-3.958-4.709-.747-.842-1.566-1.683-2.372-2.587-.857-.859-1.7-1.785-2.643-2.667-1.819-1.826-3.861-3.624-6.013-5.435-.539-.452-1.1-.883-1.659-1.331s-1.123-.893-1.712-1.316l-1.752-1.308-1.811-1.266a86.413,86.413,0,0,0-7.666-4.675,81.607,81.607,0,0,0-8.129-3.864,73.578,73.578,0,0,0-8.265-2.825c-.68-.2-1.361-.379-2.04-.537L180,102.987c-1.341-.257-2.647-.548-3.937-.726-2.566-.437-5.022-.647-7.288-.808-1.134-.063-2.223-.068-3.258-.1l-2.94.042-2.58.147c-.8.047-1.518.153-2.175.215-1.306.12-2.352.309-3.057.416l-1.084.172a.661.661,0,1,1-.207-1.3Z" fill="#ffba00"/>
      <path id="Caminho_803" data-name="Caminho 803" d="M274.732,150.837c-.091.681-.136,1.355-.185,2.017-.03.672-.04,1.346-.043,2.019a34.535,34.535,0,0,0,.255,4.027c.085.667.192,1.331.3,1.993s.27,1.317.421,1.969c.324,1.3.717,2.583,1.151,3.843a1.2,1.2,0,0,1-1.517,1.522l-.186-.064-1.716-.587c-.568-.2-1.144-.386-1.71-.594s-1.137-.4-1.7-.607l-1.695-.623q-1.694-.627-3.338-1.4a23.061,23.061,0,0,1-3.223-1.8.739.739,0,0,1-.174-1,.722.722,0,0,1,.556-.336h.014a16.107,16.107,0,0,1,1.885.181c.614.1,1.228.215,1.83.355a27.2,27.2,0,0,1,3.538,1.074c1.151.437,2.292.9,3.413,1.414s2.224,1.061,3.313,1.636l-1.7,1.459c-.123-.691-.228-1.383-.324-2.076s-.164-1.388-.236-2.081-.121-1.386-.178-2.078-.089-1.384-.123-2.076-.052-1.383-.068-2.074l-.013-2.073c0-.69-.039-1.381-.013-2.071l.021-2.065v-.013a.712.712,0,0,1,.753-.633.689.689,0,0,1,.666.688C274.7,150.8,274.734,150.818,274.732,150.837Z" transform="translate(-32.784 -15.12)" fill="#ffba00"/>
    </g>
  </g>
</svg>
