<svg xmlns="http://www.w3.org/2000/svg" width="162.972" height="96.519" viewBox="0 0 162.972 96.519">
  <path id="Caminho_810" data-name="Caminho 810" d="M1.061,50.141l2.012.171c1.321.1,3.214.317,5.726.443,2.5.181,5.519.284,8.985.4l5.529.056c1.946-.038,3.995-.048,6.128-.114,4.264-.147,8.891-.351,13.733-.826C48.023,49.84,53.1,49.215,58.3,48.4c5.2-.793,10.5-1.829,15.8-3.023,5.327-1.165,10.585-2.621,15.766-4.182s10.164-3.393,14.982-5.278,9.319-3.995,13.572-6.112c2.086-1.09,4.151-2.155,6.061-3.279,1.96-1.089,3.79-2.214,5.564-3.316s3.372-2.252,4.986-3.323c1.542-1.113,3.017-2.2,4.374-3.269,1.319-1.092,2.662-2.1,3.782-3.13s2.236-1.986,3.2-2.92l2.619-2.647c.782-.828,1.435-1.615,2.057-2.31s1.157-1.323,1.572-1.888l1.086-1.421.881-1.187c.289-.391.03-.858-.582-1.043a1.693,1.693,0,0,0-1.513.245l-.029.026-1.2,1.045c-.791.675-1.847,1.7-3.337,2.947l-2.415,2.076-2.94,2.391c-2.1,1.7-4.579,3.565-7.319,5.568-1.381,1-2.894,1.99-4.386,3.06-1.584,1.015-3.149,2.11-4.886,3.153-3.364,2.16-7.14,4.287-11.12,6.427-1,.535-2.039,1.044-3.068,1.574s-2.076,1.056-3.164,1.555l-3.239,1.547-3.349,1.5c-4.535,1.956-9.257,3.852-14.175,5.529s-9.923,3.265-15.03,4.569S62.642,45.768,57.57,46.626c-1.257.24-2.516.449-3.77.634l-3.723.571c-2.48.3-4.895.649-7.278.859-4.747.517-9.285.765-13.475.956-2.1.074-4.112.08-6.025.121l-5.436-.049-4.771-.174c-1.475-.056-2.808-.181-4.022-.255-2.415-.142-4.348-.365-5.653-.491l-2.005-.2c-.667-.068-1.292.223-1.4.649s.349.826,1.015.893Z" transform="translate(147.146 96.519) rotate(-162)" fill="#ffba00"/>
</svg>
